<svg width="1024" height="1024" viewBox="0 0 1024 1024" fill="url(#paint0_linear)" xmlns="http://www.w3.org/2000/svg">
  <linearGradient id="paint0_linear" x1="0" y1="0" x2="100%" y2="100%" gradientUnits="userSpaceOnUse">
    <stop stop-color="#5BCAFF" />
    <stop offset="1" stop-color="#1F3A93" />
  </linearGradient>

  <path
    d="M839.351 380.362L648.499 180.584C620.392 151.16 573.73 150.072 544.277 178.152L370.966 343.392C336.592 376.165 321.545 421.56 326.137 465.379C322.326 467.091 318.835 469.44 315.813 472.323L222.49 561.299C207.765 575.339 207.219 598.646 221.273 613.357L386.678 786.498C400.732 801.209 424.062 801.753 438.789 787.715L532.11 698.739C535.135 695.859 537.646 692.484 539.535 688.761C583.137 695.388 629.23 682.491 663.603 649.72L836.916 484.479C866.369 456.4 867.458 409.784 839.351 380.362ZM467.277 647.383L427.283 685.516C419.919 692.534 408.253 692.264 401.228 684.909L286.716 565.041C279.689 557.687 279.962 546.033 287.324 539.011L327.32 500.879C334.682 493.859 346.348 494.132 353.375 501.488L467.886 621.354C474.912 628.71 474.641 640.365 467.277 647.383ZM780.317 407.704L620.336 560.231C576.159 602.35 506.166 600.717 464.005 556.584L400.389 489.991C358.226 445.857 359.86 375.937 404.037 333.816L564.02 181.288C571.382 174.268 583.048 174.54 590.075 181.895L780.925 381.673C787.952 389.03 787.68 400.682 780.317 407.704ZM182.452 849.267C172.261 849.267 164 857.519 164 867.701C164 877.881 172.26 886.132 182.452 886.132C192.642 886.132 200.903 877.881 200.903 867.701C200.902 857.519 192.642 849.267 182.452 849.267ZM237.805 701.801C237.805 691.623 229.545 683.368 219.353 683.368C209.163 683.368 200.901 691.622 200.901 701.801C200.901 711.984 209.162 720.235 219.353 720.235C229.545 720.234 237.805 711.984 237.805 701.801ZM237.805 793.968C227.614 793.968 219.353 802.22 219.353 812.402C219.353 822.58 227.613 830.835 237.805 830.835C247.995 830.835 256.257 822.581 256.257 812.402C256.257 802.22 247.996 793.968 237.805 793.968ZM274.708 886.131C264.518 886.131 256.257 894.385 256.257 904.565C256.257 914.747 264.517 923 274.708 923C284.899 923 293.16 914.748 293.16 904.565C293.159 894.385 284.899 886.131 274.708 886.131ZM839.587 379.85L648.503 179.828C620.36 150.368 573.641 149.279 544.153 177.393L510.784 209.208L511.229 209.616C504.488 214.658 500.126 222.702 500.126 231.762C500.126 247.032 512.517 259.412 527.803 259.412C537.732 259.412 546 251 551.319 246.338L582.372 217.398C589.743 210.37 601.423 210.643 608.459 218.007L799.543 418.029C806.467 425.278 806.297 436.683 799.264 443.741H607.832C597.642 443.741 589.381 451.993 589.381 462.175C589.381 472.355 597.641 480.608 607.832 480.608H760.631L638.757 596.806C594.533 638.97 524.471 637.342 482.256 593.178L418.49 526.429C405.705 513.029 396.956 497.255 392.194 480.608H440.771C450.961 480.608 459.223 472.356 459.223 462.175C459.223 451.994 450.962 443.741 440.771 443.741H388.112C389.668 416.746 401.069 390.256 422.194 370.115L486.352 308.947C487.884 307.764 490.746 304.473 492 303C495.145 298.411 497.133 292.623 497.124 287.061C497.124 271.789 484.732 259.412 469.447 259.412C463.059 259.402 456.866 261.61 451.927 265.657L451.748 265.493L370.628 342.835C336.213 375.648 321.148 421.097 325.745 464.971C321.929 466.685 318.434 469.036 315.409 471.923L221.972 561.008C207.229 575.065 206.682 598.401 220.753 613.129L386.36 786.482C400.431 801.211 423.79 801.756 438.534 787.7L531.97 698.615C534.998 695.731 537.512 692.353 539.404 688.625C583.059 695.26 629.209 682.348 663.624 649.536L837.149 484.094C866.639 455.981 867.729 409.308 839.587 379.85ZM467.058 684.064L427.015 722.244C419.642 729.272 407.962 728.999 400.928 721.636L427.623 696.183C434.994 689.153 435.267 677.485 428.232 670.12C421.197 662.757 409.517 662.484 402.145 669.512L375.448 694.964L349.97 668.295L390.015 630.117C397.386 623.089 397.659 611.421 390.624 604.055C383.589 596.692 371.91 596.419 364.536 603.447L324.493 641.626L311.754 628.291L338.449 602.838C345.822 595.81 346.095 584.142 339.058 576.778C332.023 569.414 320.343 569.139 312.971 576.169L286.275 601.621C279.24 594.258 279.513 582.59 286.884 575.561L326.929 537.38C334.3 530.352 345.98 530.625 353.016 537.99L467.667 658.004C474.702 665.368 474.431 677.036 467.058 684.064ZM311.611 757.103C301.42 757.103 293.159 765.355 293.159 775.536C293.159 785.714 301.419 793.969 311.611 793.969C321.801 793.969 330.062 785.715 330.062 775.536C330.062 765.355 321.801 757.103 311.611 757.103ZM514.576 480.607C524.766 480.607 533.027 472.355 533.027 462.174C533.027 451.993 524.767 443.74 514.576 443.74C504.385 443.74 496.124 451.992 496.124 462.174C496.124 472.355 504.385 480.607 514.576 480.607ZM366.965 830.834C356.774 830.834 348.513 839.086 348.513 849.267C348.513 859.448 356.773 867.701 366.965 867.701C377.155 867.701 385.417 859.449 385.417 849.267C385.417 839.086 377.155 830.834 366.965 830.834Z" />
</svg>